<?xml version="1.0" encoding="UTF-8"?>
<svg width="24px" height="24px" viewBox="0 0 24 24" version="1.1" xmlns="http://www.w3.org/2000/svg">
    <g stroke="none" stroke-width="1" fill="none" fill-rule="evenodd">
        <rect fill="#F7DF1E" x="2" y="2" width="20" height="20"/>
        <path d="M12.4,17.1 C12.9,17.9 13.6,18.5 14.9,18.5 C16,18.5 16.7,17.9 16.7,17.1 C16.7,16.1 16,15.8 14.8,15.3 L14.2,15.1 C12.3,14.4 11.1,13.5 11.1,11.4 C11.1,9.5 12.6,8 14.8,8 C16.4,8 17.5,8.5 18.3,9.9 L16.5,11 C16.1,10.3 15.7,10 14.8,10 C13.9,10 13.4,10.5 13.4,11 C13.4,11.7 13.9,12 15,12.4 L15.6,12.6 C17.8,13.4 19,14.3 19,16.4 C19,18.7 17.2,20.5 15,20.5 C12.8,20.5 11.4,19.5 10.8,18.1 L12.4,17.1 Z M7.3,17.3 C7.7,18 8,18.5 8.9,18.5 C9.7,18.5 10.2,18.2 10.2,17 L10.2,8.2 L12.5,8.2 L12.5,17 C12.5,19.4 11.1,20.5 9,20.5 C7.1,20.5 6,19.5 5.5,18.1 L7.3,17.3 Z" fill="#000000" fill-rule="nonzero"/>
    </g>
</svg>
